# xmcd CD database file
#
# Track frame offsets:
#	150
#	28457
#	46684
#	64810
#	87793
#	102257
#	134361
#	165664
#	186836
#	207777
#
# Disc length: 3146 seconds
#
# Revision: 0
# Processed by: cddbd v1.5.1PL0 Copyright (c) Steve Scherf et al.
# Submitted via: CDex 1.51
#
DISCID=850c480a
DTITLE=Nothing工房 - Winter→Spring
DYEAR=2005
DGENRE=Game
TTITLE0=divergent point<A,B or and more・・・>
TTITLE1=BREAK of LUNA -NOCTURN-
TTITLE2=KAZE
TTITLE3=真夜中のコンビニエンスストア
TTITLE4=東風-more tempo up-
TTITLE5=Myth -Crosstalk Wind Mix-
TTITLE6=10個のハンバーガー 〜春の陽気に誘われて〜
TTITLE7=Witchcraft -PureHeart electrical mix-
TTITLE8=青空-In further height mix-
TTITLE9=BonusTrack
EXTD=YEAR: 2005
EXTT0=
EXTT1=
EXTT2=
EXTT3=
EXTT4=
EXTT5=
EXTT6=
EXTT7=
EXTT8=
EXTT9=
PLAYORDER=
